<?xml version="1.0" encoding="UTF-8"?>
<svg id="Layer_2" data-name="Layer 2" xmlns="http://www.w3.org/2000/svg" xmlns:xlink="http://www.w3.org/1999/xlink" viewBox="0 0 32 32">
  <defs>
    <style>
      .cls-1 {
        fill: none;
      }

      .cls-1, .cls-2, .cls-3, .cls-4, .cls-5 {
        stroke-width: 0px;
      }

      .cls-2 {
        fill: url(#linear-gradient);
      }

      .cls-3 {
        fill: #f2f2f2;
      }

      .cls-4 {
        fill: #ccc;
      }

      .cls-5 {
        fill: #e6e6e6;
      }
    </style>
    <linearGradient id="linear-gradient" x1="16" y1="10.12" x2="16" y2="1" gradientUnits="userSpaceOnUse">
      <stop offset="0" stop-color="gray"/>
      <stop offset=".27" stop-color="#979797"/>
      <stop offset=".75" stop-color="#bdbdbd"/>
      <stop offset="1" stop-color="#ccc"/>
    </linearGradient>
  </defs>
  <g id="Layer_1-2" data-name="Layer 1">
    <g>
      <rect class="cls-1" width="32" height="32"/>
      <path class="cls-2" d="m16,1s-11.94.14-11.94,2.66c1.33,1.26,11.94,6.47,11.94,6.47,0,0,10.61-5.21,11.94-6.47,0-2.51-11.94-2.66-11.94-2.66Z"/>
      <path class="cls-4" d="m27.94,3.66s-1.33,25.14-5.31,26.4-9.29,1.26-13.27,0S4.06,3.66,4.06,3.66c0,0,2.65,2.51,11.94,2.51s11.94-2.51,11.94-2.51Z"/>
      <path class="cls-3" d="m15.9,27.54c-.28-2.44-.53-5.99-.7-8.49-.34-2.88-.38-5.7.7-8.49.03-.09.17-.09.2,0,1.08,2.79,1.04,5.61.7,8.49-.17,2.5-.42,6.03-.7,8.49,0,.11-.19.12-.2,0h0Z"/>
      <g>
        <path class="cls-5" d="m12.02,27.54s-2.65-6.6-2.65-15.83"/>
        <path class="cls-3" d="m11.93,27.58c-1.72-3.67-3.05-7.71-3.39-11.76.01-1.38.19-2.76.72-4.11.03-.09.17-.09.2,0,1.65,3.84,1.04,7.86,1.86,11.86.19,1.32.46,2.64.79,3.94.03.11-.14.18-.19.07h0Z"/>
      </g>
    </g>
    <g>
      <path class="cls-5" d="m19.98,27.54s2.65-6.6,2.65-15.83"/>
      <path class="cls-3" d="m19.89,27.51c.63-2.59,1.05-5.24,1.3-7.9.1-2.74.26-5.29,1.35-7.9.03-.09.17-.09.2,0,1.07,2.68.81,5.48.03,8.16-.64,2.66-1.46,5.28-2.69,7.71-.05.1-.22.04-.19-.07h0Z"/>
    </g>
  </g>
</svg>